<mxfile host="localhost" modified="2020-05-15T14:23:11.042Z" agent="5.0 (Macintosh; Intel Mac OS X 10_15_4) AppleWebKit/537.36 (KHTML, like Gecko) Code/1.45.0 Chrome/78.0.3904.130 Electron/7.2.4 Safari/537.36" etag="WGQZU486dH3XqKa5wQeM" version="13.0.9">
    <diagram id="Sttl8mKHboSlKdve3zSI" name="Page-1">
        <mxGraphModel dx="625" dy="579" grid="1" gridSize="10" guides="1" tooltips="1" connect="1" arrows="1" fold="1" page="1" pageScale="1" pageWidth="827" pageHeight="1169" math="0" shadow="0">
            <root>
                <mxCell id="0"/>
                <mxCell id="1" parent="0"/>
                <mxCell id="40" value="Client&lt;br&gt;" style="shape=umlLifeline;perimeter=lifelinePerimeter;whiteSpace=wrap;html=1;container=1;collapsible=0;recursiveResize=0;outlineConnect=0;" parent="1" vertex="1">
                    <mxGeometry x="40" y="40" width="100" height="340" as="geometry"/>
                </mxCell>
                <mxCell id="42" value="PasswordAuthenticationInitV1" style="html=1;verticalAlign=bottom;endArrow=block;entryX=0;entryY=0;" parent="1" target="41" edge="1">
                    <mxGeometry x="0.0213" y="-20" relative="1" as="geometry">
                        <mxPoint x="90" y="100" as="sourcePoint"/>
                        <mxPoint as="offset"/>
                    </mxGeometry>
                </mxCell>
                <mxCell id="43" value="" style="html=1;verticalAlign=bottom;endArrow=open;dashed=1;endSize=8;exitX=0;exitY=0.95;" parent="1" source="41" target="40" edge="1">
                    <mxGeometry relative="1" as="geometry">
                        <mxPoint x="90" y="176" as="targetPoint"/>
                    </mxGeometry>
                </mxCell>
                <mxCell id="44" value="Server" style="shape=umlLifeline;perimeter=lifelinePerimeter;whiteSpace=wrap;html=1;container=1;collapsible=0;recursiveResize=0;outlineConnect=0;" parent="1" vertex="1">
                    <mxGeometry x="280" y="40" width="100" height="340" as="geometry"/>
                </mxCell>
                <mxCell id="41" value="" style="html=1;points=[];perimeter=orthogonalPerimeter;" parent="44" vertex="1">
                    <mxGeometry x="45" y="60" width="10" height="20" as="geometry"/>
                </mxCell>
                <mxCell id="46" value="" style="html=1;points=[];perimeter=orthogonalPerimeter;" parent="44" vertex="1">
                    <mxGeometry x="45" y="100" width="10" height="20" as="geometry"/>
                </mxCell>
                <mxCell id="49" value="" style="html=1;points=[];perimeter=orthogonalPerimeter;" parent="44" vertex="1">
                    <mxGeometry x="45" y="140" width="10" height="20" as="geometry"/>
                </mxCell>
                <mxCell id="52" value="" style="html=1;points=[];perimeter=orthogonalPerimeter;" parent="44" vertex="1">
                    <mxGeometry x="45" y="180" width="10" height="20" as="geometry"/>
                </mxCell>
                <mxCell id="55" value="" style="html=1;points=[];perimeter=orthogonalPerimeter;" parent="44" vertex="1">
                    <mxGeometry x="45" y="220" width="10" height="20" as="geometry"/>
                </mxCell>
                <mxCell id="59" value="" style="html=1;points=[];perimeter=orthogonalPerimeter;" parent="44" vertex="1">
                    <mxGeometry x="45" y="260" width="10" height="20" as="geometry"/>
                </mxCell>
                <mxCell id="79" value="" style="html=1;points=[];perimeter=orthogonalPerimeter;" parent="44" vertex="1">
                    <mxGeometry x="45" y="300" width="10" height="20" as="geometry"/>
                </mxCell>
                <mxCell id="45" value="" style="html=1;verticalAlign=bottom;endArrow=open;dashed=1;endSize=8;exitX=0;exitY=0.95;" parent="1" source="46" edge="1">
                    <mxGeometry relative="1" as="geometry">
                        <mxPoint x="89.5" y="159" as="targetPoint"/>
                    </mxGeometry>
                </mxCell>
                <mxCell id="47" value="PasswordAuthenticationCompleteV1" style="html=1;verticalAlign=bottom;endArrow=block;entryX=0;entryY=0;" parent="1" target="46" edge="1">
                    <mxGeometry x="0.0213" y="-20" relative="1" as="geometry">
                        <mxPoint x="90" y="140" as="sourcePoint"/>
                        <mxPoint as="offset"/>
                    </mxGeometry>
                </mxCell>
                <mxCell id="48" value="" style="html=1;verticalAlign=bottom;endArrow=open;dashed=1;endSize=8;exitX=0;exitY=0.95;" parent="1" source="49" edge="1">
                    <mxGeometry relative="1" as="geometry">
                        <mxPoint x="89.5" y="199" as="targetPoint"/>
                    </mxGeometry>
                </mxCell>
                <mxCell id="50" value="ElevateAuthenticationSessionInitV1" style="html=1;verticalAlign=bottom;endArrow=block;entryX=0;entryY=0;" parent="1" target="49" edge="1">
                    <mxGeometry x="0.0213" y="-20" relative="1" as="geometry">
                        <mxPoint x="90" y="180" as="sourcePoint"/>
                        <mxPoint as="offset"/>
                    </mxGeometry>
                </mxCell>
                <mxCell id="51" value="" style="html=1;verticalAlign=bottom;endArrow=open;dashed=1;endSize=8;exitX=0;exitY=0.95;" parent="1" source="52" edge="1">
                    <mxGeometry relative="1" as="geometry">
                        <mxPoint x="89.5" y="239" as="targetPoint"/>
                    </mxGeometry>
                </mxCell>
                <mxCell id="53" value="ElevateAuthenticationSessionCompleteV1" style="html=1;verticalAlign=bottom;endArrow=block;entryX=0;entryY=0;" parent="1" target="52" edge="1">
                    <mxGeometry x="0.0213" y="-20" relative="1" as="geometry">
                        <mxPoint x="90" y="220" as="sourcePoint"/>
                        <mxPoint as="offset"/>
                    </mxGeometry>
                </mxCell>
                <mxCell id="54" value="" style="html=1;verticalAlign=bottom;endArrow=open;dashed=1;endSize=8;exitX=0;exitY=0.95;" parent="1" source="55" edge="1">
                    <mxGeometry relative="1" as="geometry">
                        <mxPoint x="89.5" y="279" as="targetPoint"/>
                    </mxGeometry>
                </mxCell>
                <mxCell id="56" value="LoginV1" style="html=1;verticalAlign=bottom;endArrow=block;entryX=0;entryY=0;" parent="1" target="55" edge="1">
                    <mxGeometry x="0.0213" y="-20" relative="1" as="geometry">
                        <mxPoint x="90" y="260" as="sourcePoint"/>
                        <mxPoint as="offset"/>
                    </mxGeometry>
                </mxCell>
                <mxCell id="57" value="GetSessionV1" style="html=1;verticalAlign=bottom;endArrow=block;entryX=0;entryY=0;" parent="1" target="59" edge="1">
                    <mxGeometry x="0.0213" y="-20" relative="1" as="geometry">
                        <mxPoint x="90" y="300" as="sourcePoint"/>
                        <mxPoint as="offset"/>
                    </mxGeometry>
                </mxCell>
                <mxCell id="58" value="" style="html=1;verticalAlign=bottom;endArrow=open;dashed=1;endSize=8;exitX=0;exitY=0.95;" parent="1" source="59" edge="1">
                    <mxGeometry relative="1" as="geometry">
                        <mxPoint x="89.5" y="319" as="targetPoint"/>
                    </mxGeometry>
                </mxCell>
                <mxCell id="68" value="" style="shape=curlyBracket;whiteSpace=wrap;html=1;rounded=1;rotation=-180;" parent="1" vertex="1">
                    <mxGeometry x="350" y="100" width="20" height="60" as="geometry"/>
                </mxCell>
                <mxCell id="70" value="&lt;b&gt;AuthenticationSession&lt;/b&gt;&lt;br&gt;PasswordElevatedSession" style="text;html=1;align=left;verticalAlign=middle;resizable=0;points=[];autosize=1;" parent="1" vertex="1">
                    <mxGeometry x="380" y="195" width="160" height="30" as="geometry"/>
                </mxCell>
                <mxCell id="71" value="" style="shape=curlyBracket;whiteSpace=wrap;html=1;rounded=1;rotation=-180;" parent="1" vertex="1">
                    <mxGeometry x="350" y="180" width="20" height="60" as="geometry"/>
                </mxCell>
                <mxCell id="72" value="&lt;b&gt;Unauthenticated&lt;/b&gt;" style="text;html=1;align=left;verticalAlign=middle;resizable=0;points=[];autosize=1;" parent="1" vertex="1">
                    <mxGeometry x="380" y="120" width="110" height="20" as="geometry"/>
                </mxCell>
                <mxCell id="73" value="" style="shape=curlyBracket;whiteSpace=wrap;html=1;rounded=1;rotation=-180;" parent="1" vertex="1">
                    <mxGeometry x="350" y="260" width="20" height="20" as="geometry"/>
                </mxCell>
                <mxCell id="74" value="&lt;b&gt;AuthenticationSession&lt;/b&gt;&lt;br&gt;MultiFactorElevatedSession" style="text;html=1;align=left;verticalAlign=middle;resizable=0;points=[];autosize=1;" parent="1" vertex="1">
                    <mxGeometry x="380" y="255" width="160" height="30" as="geometry"/>
                </mxCell>
                <mxCell id="75" value="" style="shape=curlyBracket;whiteSpace=wrap;html=1;rounded=1;rotation=-180;" parent="1" vertex="1">
                    <mxGeometry x="350" y="300" width="20" height="20" as="geometry"/>
                </mxCell>
                <mxCell id="76" value="&lt;b&gt;Device&lt;/b&gt;" style="text;html=1;align=left;verticalAlign=middle;resizable=0;points=[];autosize=1;" parent="1" vertex="1">
                    <mxGeometry x="380" y="300" width="50" height="20" as="geometry"/>
                </mxCell>
                <mxCell id="77" value="any method with session" style="html=1;verticalAlign=bottom;endArrow=block;entryX=0;entryY=0;" parent="1" source="40" target="79" edge="1">
                    <mxGeometry x="0.0234" y="-20" relative="1" as="geometry">
                        <mxPoint x="100" y="310" as="sourcePoint"/>
                        <mxPoint as="offset"/>
                    </mxGeometry>
                </mxCell>
                <mxCell id="78" value="" style="html=1;verticalAlign=bottom;endArrow=open;dashed=1;endSize=8;exitX=0;exitY=0.95;" parent="1" source="79" target="40" edge="1">
                    <mxGeometry relative="1" as="geometry">
                        <mxPoint x="99.5" y="329" as="targetPoint"/>
                    </mxGeometry>
                </mxCell>
                <mxCell id="80" value="" style="shape=curlyBracket;whiteSpace=wrap;html=1;rounded=1;rotation=-180;" parent="1" vertex="1">
                    <mxGeometry x="350" y="340" width="20" height="20" as="geometry"/>
                </mxCell>
                <mxCell id="81" value="&lt;b&gt;Session&lt;/b&gt;&lt;br&gt;RegularSession" style="text;html=1;align=left;verticalAlign=middle;resizable=0;points=[];autosize=1;" parent="1" vertex="1">
                    <mxGeometry x="380" y="335" width="100" height="30" as="geometry"/>
                </mxCell>
            </root>
        </mxGraphModel>
    </diagram>
</mxfile>
